<svg width="45" height="45" viewBox="0 0 45 45" fill="none" xmlns="http://www.w3.org/2000/svg">
<g id="icomoon-free:cross" clip-path="url(#clip0_2_92)">
<path id="Vector" d="M44.5892 36.1517L30.9373 22.4998L44.5892 8.84796C44.8508 8.58317 44.9975 8.22595 44.9975 7.85374C44.9975 7.48153 44.8508 7.12431 44.5892 6.85952L38.1402 0.410458C38.0098 0.279585 37.8548 0.175743 37.6842 0.104887C37.5136 0.0340323 37.3307 -0.00244141 37.1459 -0.00244141C36.9612 -0.00244141 36.7783 0.0340323 36.6077 0.104887C36.4371 0.175743 36.2821 0.279585 36.1517 0.410458L22.4998 14.0623L8.84797 0.410458C8.58426 0.146827 8.22664 -0.00127304 7.85375 -0.00127304C7.48087 -0.00127304 7.12325 0.146827 6.85954 0.410458L0.410473 6.85952C0.2796 6.98991 0.175758 7.14485 0.104903 7.31546C0.0340475 7.48608 -0.00242615 7.669 -0.00242615 7.85374C-0.00242615 8.03848 0.0340475 8.2214 0.104903 8.39201C0.175758 8.56263 0.2796 8.71757 0.410473 8.84796L14.0623 22.4998L0.410473 36.1517C0.146842 36.4154 -0.00125778 36.773 -0.00125778 37.1459C-0.00125778 37.5188 0.146842 37.8764 0.410473 38.1401L6.85954 44.5892C6.98992 44.7201 7.14487 44.8239 7.31548 44.8948C7.48609 44.9656 7.66901 45.0021 7.85375 45.0021C8.0385 45.0021 8.22142 44.9656 8.39203 44.8948C8.56264 44.8239 8.71758 44.7201 8.84797 44.5892L22.4998 30.9373L36.1517 44.5892C36.4154 44.8528 36.7731 45.0009 37.1459 45.0009C37.5188 45.0009 37.8764 44.8528 38.1402 44.5892L44.5892 38.1401C44.7201 38.0098 44.8239 37.8548 44.8948 37.6842C44.9656 37.5136 45.0021 37.3307 45.0021 37.1459C45.0021 36.9612 44.9656 36.7783 44.8948 36.6077C44.8239 36.437 44.7201 36.2821 44.5892 36.1517Z" fill="white"/>
</g>
<defs>
<clipPath id="clip0_2_92">
<rect width="45" height="45" fill="white"/>
</clipPath>
</defs>
</svg>
